<mxfile host="app.diagrams.net" modified="2023-11-16T13:38:49.063Z" agent="Mozilla/5.0 (Windows NT 10.0; Win64; x64) AppleWebKit/537.36 (KHTML, like Gecko) Chrome/119.0.0.0 Safari/537.36" etag="aeguArJ-9-SO_LGVPWpn" version="22.1.0" type="device">
  <diagram name="Page-1" id="suNpy3PBkBOBV2smDsRW">
    <mxGraphModel dx="1050" dy="534" grid="1" gridSize="10" guides="1" tooltips="1" connect="1" arrows="1" fold="1" page="1" pageScale="1" pageWidth="850" pageHeight="1100" math="0" shadow="0">
      <root>
        <mxCell id="0" />
        <mxCell id="1" parent="0" />
        <mxCell id="AJElQS3p-gYfrv3s256--3" value="" style="edgeStyle=orthogonalEdgeStyle;rounded=0;orthogonalLoop=1;jettySize=auto;html=1;" edge="1" parent="1" source="AJElQS3p-gYfrv3s256--1" target="AJElQS3p-gYfrv3s256--2">
          <mxGeometry relative="1" as="geometry" />
        </mxCell>
        <mxCell id="AJElQS3p-gYfrv3s256--12" value="" style="edgeStyle=orthogonalEdgeStyle;rounded=0;orthogonalLoop=1;jettySize=auto;html=1;" edge="1" parent="1" source="AJElQS3p-gYfrv3s256--1" target="AJElQS3p-gYfrv3s256--11">
          <mxGeometry relative="1" as="geometry" />
        </mxCell>
        <mxCell id="AJElQS3p-gYfrv3s256--18" value="" style="edgeStyle=orthogonalEdgeStyle;rounded=0;orthogonalLoop=1;jettySize=auto;html=1;" edge="1" parent="1" source="AJElQS3p-gYfrv3s256--1" target="AJElQS3p-gYfrv3s256--17">
          <mxGeometry relative="1" as="geometry" />
        </mxCell>
        <mxCell id="AJElQS3p-gYfrv3s256--1" value="styles" style="rounded=0;whiteSpace=wrap;html=1;" vertex="1" parent="1">
          <mxGeometry x="450" y="100" width="120" height="60" as="geometry" />
        </mxCell>
        <mxCell id="AJElQS3p-gYfrv3s256--8" value="" style="edgeStyle=orthogonalEdgeStyle;rounded=0;orthogonalLoop=1;jettySize=auto;html=1;" edge="1" parent="1" source="AJElQS3p-gYfrv3s256--2" target="AJElQS3p-gYfrv3s256--7">
          <mxGeometry relative="1" as="geometry" />
        </mxCell>
        <mxCell id="AJElQS3p-gYfrv3s256--10" value="" style="edgeStyle=orthogonalEdgeStyle;rounded=0;orthogonalLoop=1;jettySize=auto;html=1;" edge="1" parent="1" source="AJElQS3p-gYfrv3s256--2" target="AJElQS3p-gYfrv3s256--9">
          <mxGeometry relative="1" as="geometry" />
        </mxCell>
        <mxCell id="AJElQS3p-gYfrv3s256--2" value="defaults" style="rounded=0;whiteSpace=wrap;html=1;" vertex="1" parent="1">
          <mxGeometry x="160" y="200" width="120" height="60" as="geometry" />
        </mxCell>
        <mxCell id="AJElQS3p-gYfrv3s256--7" value="colors" style="whiteSpace=wrap;html=1;rounded=0;" vertex="1" parent="1">
          <mxGeometry x="20" y="300" width="120" height="60" as="geometry" />
        </mxCell>
        <mxCell id="AJElQS3p-gYfrv3s256--9" value="breakpoints" style="whiteSpace=wrap;html=1;rounded=0;" vertex="1" parent="1">
          <mxGeometry x="290" y="300" width="120" height="60" as="geometry" />
        </mxCell>
        <mxCell id="AJElQS3p-gYfrv3s256--14" value="" style="edgeStyle=orthogonalEdgeStyle;rounded=0;orthogonalLoop=1;jettySize=auto;html=1;" edge="1" parent="1" source="AJElQS3p-gYfrv3s256--11" target="AJElQS3p-gYfrv3s256--13">
          <mxGeometry relative="1" as="geometry" />
        </mxCell>
        <mxCell id="AJElQS3p-gYfrv3s256--16" value="" style="edgeStyle=orthogonalEdgeStyle;rounded=0;orthogonalLoop=1;jettySize=auto;html=1;" edge="1" parent="1" source="AJElQS3p-gYfrv3s256--11" target="AJElQS3p-gYfrv3s256--15">
          <mxGeometry relative="1" as="geometry" />
        </mxCell>
        <mxCell id="AJElQS3p-gYfrv3s256--11" value="components" style="whiteSpace=wrap;html=1;rounded=0;" vertex="1" parent="1">
          <mxGeometry x="450" y="200" width="120" height="60" as="geometry" />
        </mxCell>
        <mxCell id="AJElQS3p-gYfrv3s256--13" value="header" style="whiteSpace=wrap;html=1;rounded=0;" vertex="1" parent="1">
          <mxGeometry x="450" y="300" width="120" height="60" as="geometry" />
        </mxCell>
        <mxCell id="AJElQS3p-gYfrv3s256--15" value="footer" style="whiteSpace=wrap;html=1;rounded=0;" vertex="1" parent="1">
          <mxGeometry x="590" y="300" width="120" height="60" as="geometry" />
        </mxCell>
        <mxCell id="AJElQS3p-gYfrv3s256--20" value="" style="edgeStyle=orthogonalEdgeStyle;rounded=0;orthogonalLoop=1;jettySize=auto;html=1;" edge="1" parent="1" source="AJElQS3p-gYfrv3s256--17" target="AJElQS3p-gYfrv3s256--19">
          <mxGeometry relative="1" as="geometry" />
        </mxCell>
        <mxCell id="AJElQS3p-gYfrv3s256--22" value="" style="edgeStyle=orthogonalEdgeStyle;rounded=0;orthogonalLoop=1;jettySize=auto;html=1;" edge="1" parent="1" source="AJElQS3p-gYfrv3s256--17" target="AJElQS3p-gYfrv3s256--21">
          <mxGeometry relative="1" as="geometry" />
        </mxCell>
        <mxCell id="AJElQS3p-gYfrv3s256--24" value="" style="edgeStyle=orthogonalEdgeStyle;rounded=0;orthogonalLoop=1;jettySize=auto;html=1;" edge="1" parent="1" source="AJElQS3p-gYfrv3s256--17" target="AJElQS3p-gYfrv3s256--23">
          <mxGeometry relative="1" as="geometry">
            <Array as="points">
              <mxPoint x="770" y="500" />
            </Array>
          </mxGeometry>
        </mxCell>
        <mxCell id="AJElQS3p-gYfrv3s256--26" value="" style="edgeStyle=orthogonalEdgeStyle;rounded=0;orthogonalLoop=1;jettySize=auto;html=1;" edge="1" parent="1" source="AJElQS3p-gYfrv3s256--17" target="AJElQS3p-gYfrv3s256--25">
          <mxGeometry relative="1" as="geometry" />
        </mxCell>
        <mxCell id="AJElQS3p-gYfrv3s256--17" value="pages" style="whiteSpace=wrap;html=1;rounded=0;" vertex="1" parent="1">
          <mxGeometry x="710" y="200" width="120" height="60" as="geometry" />
        </mxCell>
        <mxCell id="AJElQS3p-gYfrv3s256--19" value="about" style="whiteSpace=wrap;html=1;rounded=0;" vertex="1" parent="1">
          <mxGeometry x="870" y="300" width="120" height="60" as="geometry" />
        </mxCell>
        <mxCell id="AJElQS3p-gYfrv3s256--21" value="contact" style="whiteSpace=wrap;html=1;rounded=0;" vertex="1" parent="1">
          <mxGeometry x="790" y="400" width="120" height="60" as="geometry" />
        </mxCell>
        <mxCell id="AJElQS3p-gYfrv3s256--23" value="home" style="whiteSpace=wrap;html=1;rounded=0;" vertex="1" parent="1">
          <mxGeometry x="580" y="400" width="120" height="60" as="geometry" />
        </mxCell>
        <mxCell id="AJElQS3p-gYfrv3s256--25" value="services" style="whiteSpace=wrap;html=1;rounded=0;" vertex="1" parent="1">
          <mxGeometry x="970" y="200" width="120" height="60" as="geometry" />
        </mxCell>
      </root>
    </mxGraphModel>
  </diagram>
</mxfile>
